<svg xmlns="http://www.w3.org/2000/svg" viewBox="32 32 136 136" width="136" height="136" fill="none"><defs><linearGradient id="tile" x1="0" y1="0" x2="1" y2="1"><stop offset="0%" stop-color="#3E1E32"></stop><stop offset="100%" stop-color="#180D14"></stop></linearGradient><linearGradient id="beetBody" x1="0" y1="0" x2="1" y2="0.6"><stop offset="0%" stop-color="#E45A96"></stop><stop offset="55%" stop-color="#B82E6E"></stop><stop offset="100%" stop-color="#7A1646"></stop></linearGradient><linearGradient id="leaf" x1="0" y1="0" x2="0" y2="1"><stop offset="0%" stop-color="#54C77B"></stop><stop offset="100%" stop-color="#2C8B4E"></stop></linearGradient><radialGradient id="beetHi" cx="35%" cy="28%" r="55%"><stop offset="0%" stop-color="#fff" stop-opacity="0.5"></stop><stop offset="100%" stop-color="#fff" stop-opacity="0"></stop></radialGradient></defs><rect x="32" y="32" width="136" height="136" rx="36" fill="url(#tile)"></rect><rect x="64" y="56" width="72" height="10" rx="5" fill="#F0E6D6"></rect><rect x="64" y="138" width="72" height="10" rx="5" fill="#F0E6D6"></rect><path d="M72,66 C72,88 92,98 92,102 C92,106 72,116 72,138 M128,66 C128,88 108,98 108,102 C108,106 128,116 128,138" stroke="#F0E6D6" stroke-width="3.2" fill="none" stroke-linecap="round"></path><circle cx="100" cy="82" r="2.4" fill="#E45A96"></circle><circle cx="100" cy="90" r="2" fill="#E45A96"></circle><circle cx="100" cy="97" r="1.5" fill="#E45A96"></circle><g transform="translate(100,124) scale(0.36) translate(-50,-62)"><g transform="translate(50,30)"><g transform="rotate(-33)"><path d="M0,3 C-6,-7 -6,-18 0,-27 C6,-18 6,-7 0,3 Z" fill="url(#leaf)"></path></g><g transform="rotate(33)"><path d="M0,3 C-6,-7 -6,-18 0,-27 C6,-18 6,-7 0,3 Z" fill="url(#leaf)"></path></g><path d="M0,5 C-6.5,-7 -6.5,-19 0,-30 C6.5,-19 6.5,-7 0,5 Z" fill="url(#leaf)"></path></g><path d="M50,30 C29,28 17,42 17,57 C17,77 38,100 50,107 C62,100 83,77 83,57 C83,42 71,28 50,30 Z" fill="url(#beetBody)"></path><ellipse cx="37" cy="50" rx="9" ry="16" fill="url(#beetHi)"></ellipse><path d="M50,107 C49,114 47,118 44,122" stroke="#5e1038" stroke-width="2.6" stroke-linecap="round"></path><path d="M50,107 C51,114 53,117 56,120" stroke="#5e1038" stroke-width="2.6" stroke-linecap="round"></path></g></svg>